<?xml version="1.0" encoding="utf-8"?>
<!-- Generator: Adobe Illustrator 15.0.0, SVG Export Plug-In . SVG Version: 6.00 Build 0)  -->
<!DOCTYPE svg PUBLIC "-//W3C//DTD SVG 1.1//EN" "http://www.w3.org/Graphics/SVG/1.1/DTD/svg11.dtd">
<svg version="1.1" id="Calque_1" xmlns="http://www.w3.org/2000/svg" xmlns:xlink="http://www.w3.org/1999/xlink" x="0px" y="0px"
	 width="2834.824px" height="1125.711px" viewBox="0.021 854.454 2834.824 1125.711"
	 enable-background="new 0.021 854.454 2834.824 1125.711" xml:space="preserve">
<path fill="#5F6368" d="M1340.7,1404.419v329.972h-104.682V919.504h277.633c66.936-1.398,131.657,23.999,179.779,70.546
	c48.688,43.795,76.068,106.497,75.097,171.977c1.395,65.845-26.034,129.016-75.097,172.951
	c-48.549,46.294-108.475,69.419-179.779,69.376H1340.7V1404.419z M1340.7,1019.829v284.46h175.552
	c38.916,1.153,76.517-14.142,103.576-42.133c54.995-53.468,56.233-141.394,2.766-196.389c-0.909-0.935-1.831-1.856-2.766-2.766
	c-26.731-28.593-64.449-44.338-103.575-43.238H1340.7V1019.829z"/>
<path fill="#5F6368" d="M2009.749,1158.646c77.373,0,138.448,20.676,183.225,62.028c44.777,41.353,67.144,98.049,67.101,170.091
	v343.626h-100.13v-77.373h-4.552c-43.346,63.721-100.996,95.58-172.951,95.58c-61.422,0-112.809-18.207-154.161-54.617
	c-40.19-33.844-62.979-84.006-62.028-136.541c0-57.693,21.803-103.576,65.409-137.646c43.606-34.069,101.82-51.148,174.643-51.234
	c62.158,0,113.35,11.378,153.575,34.135v-23.927c0.24-35.813-15.636-69.834-43.237-92.653
	c-27.683-24.976-63.76-38.603-101.041-38.166c-58.474,0-104.746,24.664-138.816,73.992l-92.197-58.063
	C1835.303,1195.056,1910.356,1158.646,2009.749,1158.646z M1874.314,1563.715c-0.143,27.031,12.792,52.465,34.72,68.271
	c23.152,18.211,51.889,27.859,81.34,27.309c44.174-0.074,86.517-17.656,117.75-48.895c34.677-32.641,52.016-70.938,52.016-114.891
	c-32.64-26.008-78.153-39.012-136.541-39.012c-42.522,0-77.979,10.252-106.371,30.754
	C1888.554,1508.059,1874.313,1533.352,1874.314,1563.715L1874.314,1563.715z"/>
<path fill="#5F6368" d="M2834.846,1176.851l-349.544,803.314h-108.063l129.714-281.078l-229.844-522.236h113.784l166.124,400.519
	h2.275l161.573-400.519H2834.846z"/>
<path fill="#4285F4" d="M917.684,1333.287c0.04-31.901-2.657-63.748-8.063-95.188H468.14v180.298H721
	c-10.456,58.189-44.231,109.582-93.498,142.264v117.035h150.91C866.773,1596.225,917.684,1475.745,917.684,1333.287z"/>
<path fill="#34A853" d="M468.14,1790.764c126.333,0,232.704-41.482,310.272-113.004l-150.91-117.035
	c-42.002,28.479-96.099,44.734-159.362,44.734c-122.106,0-225.747-82.316-262.809-193.239H49.87v120.612
	C129.333,1690.956,291.171,1790.756,468.14,1790.764z"/>
<path fill="#FBBC04" d="M205.331,1412.221c-19.593-58.124-19.593-121.068,0-179.193v-120.61H49.87
	c-66.465,132.257-66.465,288.157,0,420.416L205.331,1412.221z"/>
<path fill="#EA4335" d="M468.14,1039.79c66.761-1.091,131.27,24.134,179.584,70.221l0,0l133.614-133.615
	c-84.726-79.578-196.969-123.269-313.198-121.911c-176.968,0.008-338.806,99.808-418.27,257.933l155.461,120.61
	C242.393,1122.104,346.033,1039.79,468.14,1039.79z"/>
</svg>
