<svg height="30" viewBox="0 0 79 30" width="51" xmlns="http://www.w3.org/2000/svg">
    <g fill="#225e63">
        <path d="m2.01492 1.67911.78359.22387c0 .22389-.11194.44777-.22388.55971s-.22388.22388-.44776.33582c-.11194.11194-.33583.11194-.67165.11194s-.559699 0-.78358-.11194-.335821-.22388-.559701-.44776c0-.22389-.111939-.55971-.111939-.89553 0-.44776.111939-.895518.33582-1.119399.223881-.223881.559702-.33582015 1.1194-.33582015.33582 0 .67164.11193915.89552.22387915.22389.11194.33583.335822.44777.671642l-.78359.223878c0-.11194-.11193-.11194-.11193-.223878 0-.11194-.11195-.11194-.22389-.11194s-.11194 0-.22388 0c-.22388 0-.33582.111941-.44776.223878-.111936.11194-.111938.33582-.111938.5597 0 .33583.000002.55971.111938.67165.11194.11194.22388.22388.44776.22388s.33582 0 .33582-.11194c.11194-.33583.22388-.44776.22388-.67164z" transform="translate(51.49 15.336)" />
        <path d="m-.00000085 1.56716c0-.44776.11194185-.783578.44776285-1.119399.223881-.22388.671638-.44776057 1.119408-.44776057.44776 0 .89552.11193957 1.1194.33581957.22388.223881.33582.67164.33582 1.1194 0 .33582-.11194.55971-.22388.78359s-.22388.33582-.44776.44776-.44776.22388-.78358.22388c-.33583 0-.55971 0-.783588-.11194-.22388-.11194-.335821-.22388-.559701-.44776-.223881-.22388-.22388185-.44776-.22388185-.78359zm.89552185 0c0 .33583.000002.44777.111939.67165.11194.11194.22388.22388.44776.22388s.33582-.11194.44777-.22388c.11194-.11194.11193-.33582.11193-.67165 0-.22388.00001-.44776-.11193-.5597-.11195-.111938-.22389-.223879-.44777-.223879s-.33582.111941-.44776.223879c-.111937 0-.111939.22388-.111939.5597z" transform="translate(54.63 15.224)" />
        <path d="m.00000171.00000085h1.11939829l.44776 1.79103915.44777-1.79103915h1.1194v2.91044915h-.67165v-2.238809l-.5597 2.238809h-.67164l-.559698-2.238809v2.238809h-.67164029z" transform="translate(58.1 15.336)" />
        <path d="m.00000085.00000085h1.45521915c.33582 0 .5597.11193915.67164.22387915s.22389.335822.22389.671642c0 .335818-.11195.559698-.22389.671638-.22388.11194-.44775.22388-.78357.22388h-.447768v1.11941h-.89552115zm.89552115 1.23133915h.223878c.22388 0 .33582 0 .33582-.11194.11194-.11194.11194-.11194.11194-.223878 0-.11194 0-.111941-.11194-.223881s-.22388-.111939-.33582-.111939h-.223878z" transform="translate(61.79 15.336)" />
        <path d="m-.00000085.00000085h.89552185v2.12686915h1.343289v.67164h-2.23881085z" transform="translate(64.7 15.336)" />
        <path d="m.111939.00000085h.783583v2.91044915h-.89552115v-2.91044915z" transform="translate(67.39 15.336)" />
        <path d="m2.01493 2.46269h-1.00747l-.111937.44776h-.89552129l1.11939829-2.91044957h1.00746l1.11941 2.91044957h-.89552zm-.22389-.55971-.33582-1.007458-.33582 1.007458z" transform="translate(68.73 15.224)" />
        <path d="m.00000171.00000085h.78357829l1.1194 1.56715915v-1.56715915h.78359v2.91044915h-.78359l-1.1194-1.56717v1.56717h-.78357829z" transform="translate(72.09 15.336)" />
        <path d="m-.00000342.00000085h2.68657342v.67164015h-.89552v2.126869h-.895528v-2.126869h-.89552542z" transform="translate(75.22 15.336)" />
        <path d="m42.7612 19.7015 2.5746-.7836-.7836-1.903c-.6716.7836-1.2313 1.7911-1.791 2.6866zm-.7836-8.5075-5.0373-11.194-36.9403 2.12687 10.1866 27.87313 19.7015-6.1567c-1.2314-1.7911-1.6791-3.9179-.2239-5.0373 1.5671-1.1194 4.0298.2239 5.597 2.1268 1.4552-2.5746 5.7089-8.3955 6.7164-9.7388z" />
    </g>
    <path d="m2.79851 5.37314c1.56716 0 2.79851-1.23135 2.79851-2.68657 0-1.45523-1.23135-2.68657171-2.79851-2.68657171-1.56717 0-2.79850829 1.23134171-2.79850829 2.68657171 0 1.45522 1.34328829 2.68657 2.79850829 2.68657zm-2.238807 1.1194h4.589547v11.97756h-4.589547z" fill="#fefefe" transform="translate(32.91 2.742)" />
    <path d="m11.5299 3.63184.1119-3.022388s0-.111939-.1119-.111939c0 0-.5598-.335822-2.46274-.4477626-.11194 0-1.6791-.1119403-2.12686 0-6.604476.5597016-6.94030171 5.3731396-6.94030171 5.5970196v1.1194c0 .11194.00000545 5.03733 6.94030171 5.48503h2.12686c1.56714 0 2.68654-.4477 2.68654-.4477l.112-.112v-2.79846s0 0-.112 0c0 0-.4477.44776-2.68654.5597-.67164.11194-.89552 0-1.1194 0-3.13433-.5597-3.24626-2.79851-3.24626-2.79851v-.11194-.89552-.11194s.22387-2.46269 3.24626-2.68657h1.1194c1.34324.11194 2.46274.78358 2.46274.78358z" fill="#fefefe" transform="translate(19.7 9.073)" />
    <path d="m.00000342 11.9776 4.47761658.112s.11193 0 .11193-.112v-3.47014s0-.11194.11194-.11194c0 0 7.16421.5597 7.16421-4.25373 0-3.805969-4.47764-4.14178829-5.93287-4.14178829h-5.820888s-.11193858-.00000171-.11193858.11193829zm4.47761658-6.26864v-3.13433h1.1194s1.56716.11194 1.6791 1.1194v.67164c-.22388 1.23134-1.56716 1.34329-1.56716 1.34329z" fill="#fefefe" transform="translate(7.05 9.235)" />
    <path d="m5.93283 19.0307c.33582 0 .67165 0 1.11941-.2239 1.6791-.8955 7.05226-14.21638 12.87316-18.358171l.1119-.11194v-.11194s0-.2238812-.8955-.2238812c-5.1493-.1119408-10.5224 10.6343322-13.3209 14.8880322h-.22389s-1.90298-2.2388-3.47014-3.0224c0 0-.22389-.1119-.44777-.1119-.11194 0-.895517.1119-1.231338.5597-.44776117.4478-.44776285.6716-.44776285 1.2313 0 0 .00000042.2239.11194085.3359.447761.6716 2.23881 3.2462 3.69403 4.5895.33582.112.67164.5597 2.12686.5597z" fill="#2bbc5d" transform="translate(30 7.947)" />
    <path d="m.00000171-.00000043h4.25372829c.89552 0 1.56717.11194043 2.01493.33582143.5597.22388.89552.559702 1.23134 1.007459.33582.44777.5597.89553.78358 1.45523.11194.5597.22388 1.1194.22388 1.79104 0 1.00746-.11194 1.79105-.33582 2.35075s-.5597 1.00746-.89552 1.34328c-.44776.33582-.78358.67164-1.34328.78358-.67165.22389-1.23135.22389-1.67911.22389h-4.25372829zm2.91044829 2.12687043v5.03731h.67164c.5597 0 1.00746-.11194 1.23134-.22388s.44776-.33582.55971-.67164c.11194-.33582.22388-.89553.22388-1.56717 0-1.00746-.11195-1.6791-.44777-2.01492s-.89552-.5597-1.56716-.5597z" fill="#225e63" transform="translate(51.38 4.366)" />
    <path d="m-.00000085 6.49254 2.68657085-.22388c.11194.44776.22388.78358.33582 1.00746.33582.33582.67164.5597 1.23134.5597.44776 0 .67164-.11194.89553-.33582.22388-.22388.33581-.44776.33581-.67164s-.11193-.44776-.33581-.67164c-.22389-.22388-.67165-.33582-1.45523-.5597-1.23135-.33582-2.12686-.67165-2.68657-1.11941-.559698-.44776-.783579-1.1194-.783579-1.79104 0-.44776.111942-.89553.447762-1.34329.223881-.447758.671637-.783578 1.231347-1.007459.5597-.223881 1.34328-.33582121 2.2388-.33582121 1.23134 0 2.12687.22388121 2.68657.67164221.67164.447758 1.00746 1.119398 1.1194 2.126868l-2.68657.11194c-.11194-.44776-.22388-.67164-.44776-.89552-.22388-.22389-.5597-.33583-1.00746-.33583-.33582 0-.5597.11194-.78358.22388v.67165c0 .11194.11194.33582.22388.44776s.44776.22388 1.00746.33582c1.23134.22388 2.12687.5597 2.68657.78358s.89552.67164 1.23134 1.00746c.22388.44776.33582.89553.33582 1.34329 0 .5597-.11194 1.1194-.44776 1.6791s-.78358.89552-1.34328 1.11941c-.5597.22388-1.34329.33582-2.23881.33582-1.56716 0-2.68656-.33582-3.24626-.89553-.895527-.5597-1.23135085-1.34328-1.23135085-2.2388z" fill="#225e63" transform="translate(60.78 4.142)" />
    <path d="m0 6.49254 2.68657-.22388c.11194.44776.22387.78358.33581 1.00746.33583.33582.67165.5597 1.23136.5597.44776 0 .67163-.11194.89551-.33582s.33583-.44776.33583-.67164-.11195-.44776-.33583-.67164-.67163-.33582-1.45522-.5597c-1.23134-.33582-2.12686-.67165-2.68657-1.11941-.559697-.44776-.783579-1.1194-.783579-1.79104 0-.44776.111938-.89553.447759-1.34329.223881-.447758.67164-.783578 1.23134-1.007459.5597-.223881 1.34329-.33582121 2.23881-.33582121 1.23134 0 2.12687.22388121 2.68657.67164221.67164.447758 1.00746 1.119398 1.1194 2.126868l-2.68657.11194c-.11194-.44776-.22387-.67164-.44775-.89552-.22388-.22389-.55971-.33583-1.00747-.33583-.33582 0-.5597.11194-.78359.22388-.22388.11195-.22387.33583-.22387.55971 0 .11194.11193.33582.22387.44776.11195.11194.44777.22388 1.00747.33582 1.23134.22388 2.12687.5597 2.68657.78358s.89552.67164 1.23134 1.00746c.22388.44777.33582.89553.33582 1.34329 0 .5597-.11194 1.1194-.44776 1.6791s-.78358.89552-1.34328 1.1194c-.5597.22389-1.34328.33583-2.2388.33583-1.56717 0-2.68657-.33583-3.24628-.89553-.671637-.44776-1.00746-1.23134-1.00746-2.12686z" fill="#225e63" transform="translate(69.96 4.142)" />
</svg>