<?xml version="1.0" encoding="utf-8"?>
<!-- Generator: Adobe Illustrator 25.4.1, SVG Export Plug-In . SVG Version: 6.00 Build 0)  -->
<svg version="1.1" id="Layer_1" xmlns="http://www.w3.org/2000/svg" xmlns:xlink="http://www.w3.org/1999/xlink" width="39" viewBox="0 0 58.2 32.2" style="enable-background:new 0 0 58.2 32.2;" xml:space="preserve">
	<style type="text/css">
	.st0{fill-rule:evenodd;clip-rule:evenodd;fill:#344E90;}
	.st1{fill-rule:evenodd;clip-rule:evenodd;fill:#EC902D;}
</style>
	<path class="st0" d="M49.9,21.4c-0.1,0.6-0.2,1.2-0.3,1.8c-0.6-0.2-1.2-0.5-2.1-0.4c-0.5,0-1.2,0.2-1.2,0.7c0,0.5,0.9,0.8,1.4,1.1
	c0.9,0.4,1.8,1,1.9,2.1c0.1,0.9-0.4,1.6-0.8,2c-1.2,1.1-4,1.3-5.9,0.5c0.1-0.6,0.2-1.2,0.3-1.9c0.7,0.3,1.7,0.7,2.8,0.6
	c0.5-0.1,1.1-0.3,1.1-0.8c0-0.6-1.2-1-1.8-1.3c-0.7-0.4-1.5-1-1.5-1.9c0-0.6,0.2-1.2,0.5-1.6C45.3,21.2,47.8,20.8,49.9,21.4z" />
	<path class="st0" d="M27.5,9.5H30L28.5,19H26L27.5,9.5z" />
	<path class="st0" d="M18.8,9.5h3.8c2.4,0,3.1,1.4,2.8,3c-0.2,1.4-1.2,2.3-2.5,2.6l2.4,3.9h-3.2l-1.8-3.7L19.8,19h-2.5L18.8,9.5z
	 M21,11.4l-0.4,2.4h0.7c0.7,0,1.4-0.5,1.5-1.2c0.1-0.7-0.4-1.2-1.1-1.2H21z" />
	<path class="st0" d="M39,9.5h2.5L40,19h-2.5L39,9.5z" />
	<path class="st0" d="M43.4,9.5h5.5l-0.3,2.1h-3l-0.3,1.6h2.9l-0.3,2.1H45L44.7,17h3L47.4,19h-5.5L43.4,9.5z" />
	<path class="st0" d="M11.8,9.5h5.5L17,11.6h-3l-0.3,1.6h2.9l-0.3,2.1h-2.9L13.1,17h3L15.8,19h-5.5L11.8,9.5z" />
	<path class="st0" d="M31.9,9.5h5.6l-0.3,2.1h-3.1l-0.3,1.6h2.8l-0.3,2.1h-2.8L32.9,19h-2.5L31.9,9.5z" />
	<path class="st0" d="M50.4,9.5h3.3c3.9,0,4.8,2.9,4.5,4.8c-0.4,2.7-2.9,4.8-6,4.8h-3.3L50.4,9.5z M52.6,11.6h0.5
	c1.9,0,2.7,1.3,2.5,2.6C55.3,15.9,54,17,52.4,17h-0.7L52.6,11.6z" />
	<path class="st0" d="M0,8.2h4.7l0.6,6.9C8.3,9.9,11.4,4.9,14.6,0h1.5c-3.3,6.3-6.6,12.6-9.8,19H2.8L2,11.4C1.8,9.5,1.4,8.7,0,8.5
	V8.2z" />
	<path class="st1" d="M1.8,4.3l4,1.6l0.3,4.3h0.3l3.6-6V4H1.8L1.8,4.3z" />
	<path class="st0" d="M20.1,25.9c0.6,0,1,0.5,0.9,1.2c-0.1,0.7-0.7,1.2-1.3,1.2c-0.6,0-1-0.5-0.9-1.2C18.9,26.4,19.5,25.9,20.1,25.9z
	 M18.1,21.3h1.6L19.1,25c0.5-0.4,1-0.7,1.7-0.7c1.3,0,2.2,1.2,1.9,2.7c-0.2,1.5-1.5,2.7-2.8,2.7c-0.6,0-1.1-0.3-1.4-0.8l-0.1,0.6
	h-1.6L18.1,21.3z" />
	<path class="st0" d="M22.9,24.4h2l0.9,2.7l1.7-2.7h1.9l-5,7.8h-1.9l2.1-3.3L22.9,24.4z" />
	<path class="st0" d="M39,29.6l1.4-8.4h2.3l-1.4,8.4H39z" />
	<path class="st0" d="M37,21.2c-0.8,1.9-1.5,3.8-2.3,5.7l-0.2-1.1c0,0,0,0,0,0l0,0.2c-0.2-0.6-0.5-1.1-0.9-1.6c0,0,0,0,0,0
	c-0.1-0.1-0.1-0.2-0.2-0.3c0-0.1-0.1-0.1-0.1-0.2c-0.6-0.6-1.3-1.1-2-1.5l2.1,7.2h2.5c1.2-2.8,2.5-5.6,3.6-8.4H37z" />
	<path class="st1" d="M32.6,21.2h-3.8v0.2c2.2,0.4,5,2.2,5.7,4.6l-0.8-3.9C33.6,21.5,33.1,21.2,32.6,21.2z" />
	<path class="st0" d="M57.7,29.7h-2.1c-0.1-0.4-0.2-0.9-0.3-1.3h-2.9l-0.5,1.3h-2.5l3.2-7.2c0.1-0.3,0.4-0.7,0.5-0.9
	c0.2-0.3,0.8-0.3,1.1-0.3h1.8L57.7,29.7z M54.2,23.6L53,26.7h1.9L54.2,23.6z" />
</svg>