<svg xmlns="http://www.w3.org/2000/svg" width="42" height="24" viewBox="0 0 51 24">
    <g fill="none" fill-rule="nonzero">
        <path fill="#666" d="M47.16 13.92a10.853 10.853 0 0 0-7.36-2.867h-6.467v-.293C33.32 4.813 28.493 0 22.547 0H0c.04.805.157 1.604.347 2.387 0 .173.08.346.133.52a1.107 1.107 0 0 0 0 .2 13.667 13.667 0 0 0 13.08 9.56h3.773c0 .32.107.626.174.946v.174l.093.346c0 .067 0 .147.067.214a13.92 13.92 0 0 0 4.906 6.986A13.707 13.707 0 0 0 30.813 24h19.694v-.12a9.84 9.84 0 0 0 .16-1.92 10.947 10.947 0 0 0-3.507-8.04zm3.107 9.8H30.813a13.414 13.414 0 0 1-8.066-2.667 13.64 13.64 0 0 1-4.827-6.773v-.213a3.107 3.107 0 0 1-.093-.334v-.173c-.067-.293-.12-.587-.174-.88h15.48c.076-.441.125-.886.147-1.333h6.52c5.891 0 10.667 4.775 10.667 10.666-.02.574-.087 1.145-.2 1.707z" />
        <path fill="#666" d="M26.573 15.4l-1.96 4.227h.334l.533-1.174H28l.533 1.174h.334L26.92 15.4h-.347zm-.96 2.773l1.054-2.44 1.106 2.44h-2.16zM30.667 19.427a1.333 1.333 0 0 1-1.267-1.334 1.333 1.333 0 0 1 1.24-1.333c.396.01.768.196 1.013.507l.214-.227a1.587 1.587 0 0 0-2.787 1.04 1.573 1.573 0 0 0 1.587 1.613c.489.01.954-.213 1.253-.6l-.2-.186c-.252.327-.64.519-1.053.52zM33.88 19.427a1.333 1.333 0 0 1-1.253-1.334 1.253 1.253 0 0 1 1.226-1.333c.401.006.778.192 1.027.507l.213-.227a1.64 1.64 0 0 0-1.226-.56 1.587 1.587 0 0 0-1.56 1.6 1.573 1.573 0 0 0 1.56 1.587c.485.007.944-.215 1.24-.6l-.2-.187c-.24.33-.62.531-1.027.547zM36.933 16.493a1.507 1.507 0 0 0-1.453 1.6 1.52 1.52 0 0 0 1.507 1.587 1.627 1.627 0 0 0 1.333-.573l-.2-.174c-.266.303-.65.478-1.053.48a1.227 1.227 0 0 1-1.2-1.213H38.4a.333.333 0 0 0 0-.12 1.453 1.453 0 0 0-1.467-1.587zM35.8 17.96a1.2 1.2 0 0 1 1.12-1.2 1.147 1.147 0 0 1 1.107 1.2H35.8zM40.613 16.493a1.493 1.493 0 0 0-1.266.76v-.68h-.294v4h.294v-1.6c.268.444.748.717 1.266.72a1.52 1.52 0 0 0 1.48-1.6 1.52 1.52 0 0 0-1.48-1.6zm1.16 1.614a1.187 1.187 0 0 1-1.2 1.333 1.333 1.333 0 0 1-1.24-1.333 1.333 1.333 0 0 1 1.24-1.334 1.227 1.227 0 0 1 1.2 1.334zM43.187 15.587h-.294v.986h-.44v.267h.44v2a.787.787 0 0 0 .867.84c.17 0 .338-.037.493-.107v-.28a.973.973 0 0 1-.453.107c-.347 0-.613-.147-.613-.587V16.84h1.08v-.267h-1.08v-.986z" />
        <path fill="#FFF" d="M23.213 6.227H19v2.186h1.333V7.187h.574l.746 1.226h1.52L22.28 7.08c.42-.135.76-.447.933-.853zM22.787 4.627a1.48 1.48 0 0 0-1-.387H18.92c-.014.11-.014.223 0 .333.236.79.962 1.333 1.787 1.334h2.466a1.64 1.64 0 0 0 0-.254 1.493 1.493 0 0 0-.386-1.026zM14.507 4.787l-.56 1.88h-.094l-.52-1.88a.773.773 0 0 0-.733-.547h-1.333v4.173H12.6V5.947h.067l.76 2.466h.946l.76-2.466h.094v2.466h1.333V4.24h-1.333a.76.76 0 0 0-.72.547M17.133 4.24h1.333v4.173h-1.333z" />
    </g>
</svg>